<svg width="96" height="72" viewBox="0 0 96 72" fill="none" xmlns="http://www.w3.org/2000/svg">
<path d="M95.6234 14.8013L95.5663 67.2215C95.5663 69.5781 93.6666 71.5064 91.3669 71.5064H5.23793C4.82369 71.5064 4.4381 71.4493 4.05232 71.3207C2.70959 70.9206 1.65263 69.8495 1.22415 68.4923C1.10991 68.0925 1.03838 67.6642 1.03838 67.2213L0.981445 14.8013C0.981445 6.93101 7.2805 0.489258 14.965 0.489258H81.6401C84.4825 0.489258 87.1391 1.37468 89.353 2.88877C90.8242 3.88861 92.0954 5.15999 93.1095 6.64524C94.6949 8.95916 95.6234 11.7873 95.6234 14.8013Z" fill="#D7D7D7"/>
<path d="M82.6623 4.83818C82.5995 4.81674 82.5365 4.80232 82.4875 4.78809H81.6344H69.4524C68.5409 4.78809 67.8019 5.54356 67.8019 6.47538V20.8953C67.8019 30.5825 63.9123 29.7316 59.1582 29.7316H50.4029H48.7476H47.8574H46.2019H37.4464C32.6925 29.7316 28.8029 29.6887 28.8029 20.8953V6.47538C28.8029 5.54356 28.0641 4.78809 27.1526 4.78809H14.9704H14.1173C14.0683 4.80232 14.0053 4.81674 13.9424 4.83818C9.02624 5.36721 5.17993 9.63516 5.17993 14.7968V21.946L5.24241 60.0725V65.5344C5.24241 66.4662 5.98125 67.2215 6.89291 67.2215H12.2356H43.4048H46.2071H50.3981H53.2004H84.3696H89.7124C90.6237 67.2215 91.3627 66.466 91.3627 65.5344V60.0725L91.425 21.946V14.7968C91.4249 9.63535 87.5785 5.36721 82.6623 4.83818Z" fill="#7CC1C6"/>
<path d="M65.0138 11.9373V22.3608C65.0138 24.627 63.1624 26.4716 60.903 26.4716H35.7021C33.4359 26.4716 31.5913 24.627 31.5913 22.3608V11.9373C31.5913 8.00517 34.8084 4.78809 38.7405 4.78809H57.8644C61.7965 4.78809 65.0138 8.00517 65.0138 11.9373Z" fill="#FEFFFF"/>
<path d="M63.1185 10.7219L64.1328 10.894L63.085 16.3272L62.1377 16.1677L63.1185 10.7219Z" fill="#C3C2C2"/>
<path d="M60.3828 10.26L61.3974 10.4308L60.5307 15.896L59.5835 15.7354L60.3828 10.26Z" fill="#C3C2C2"/>
<path d="M56.7416 8.46118L57.7797 8.58521L56.8568 16.8085L55.9202 16.6954L56.7416 8.46118Z" fill="#C3C2C2"/>
<path d="M53.8429 9.58594L54.869 9.65969L54.4346 15.1759L53.4763 15.1073L53.8429 9.58594Z" fill="#C3C2C2"/>
<path d="M51.0725 9.4458L52.101 9.47076L51.8496 14.9984L50.8892 14.9761L51.0725 9.4458Z" fill="#C3C2C2"/>
<path d="M44.4983 9.47076L45.5268 9.4458L45.7102 14.9761L44.7497 14.9984L44.4983 9.47076Z" fill="#C3C2C2"/>
<path d="M41.731 9.65969L42.7572 9.58594L43.1236 15.1073L42.1653 15.1759L41.731 9.65969Z" fill="#C3C2C2"/>
<path d="M37.7817 8.70985L38.8197 8.58545L39.7426 16.8088L38.8058 16.9213L37.7817 8.70985Z" fill="#C3C2C2"/>
<path d="M35.2017 10.4308L36.2163 10.26L37.0156 15.7354L36.0682 15.896L35.2017 10.4308Z" fill="#C3C2C2"/>
<path d="M32.4661 10.894L33.4805 10.7219L34.4613 16.1677L33.5138 16.3272L32.4661 10.894Z" fill="#C3C2C2"/>
<path d="M48.0662 24.1139C49.2818 24.1139 50.2672 23.1285 50.2672 21.9129C50.2672 20.6973 49.2818 19.7119 48.0662 19.7119C46.8506 19.7119 45.8652 20.6973 45.8652 21.9129C45.8652 23.1285 46.8506 24.1139 48.0662 24.1139Z" fill="#DC4B58"/>
<path d="M48.0662 8.62036L47.3965 22.3263H48.0662H48.7361L48.0662 8.62036Z" fill="#DC4B58"/>
<path d="M56.2025 47.5188V71.5114H40.4028V47.5188C40.4028 45.374 42.1544 43.6226 44.2918 43.6226H52.3133C53.5788 43.6226 54.7154 44.2374 55.423 45.1882C55.9165 45.8387 56.2025 46.6467 56.2025 47.5188Z" fill="#D5D6D5"/>
<path d="M56.2025 49.2492V71.5117H40.4028V49.2492C40.4028 47.1044 42.1544 45.3528 44.2918 45.3528H52.3133C53.5788 45.3528 54.7154 45.9678 55.423 46.9184C55.9165 47.5691 56.2025 48.3769 56.2025 49.2492Z" fill="#D7D7D7"/>
<path opacity="0.06" d="M93.1096 6.64542C92.0955 5.15999 90.8243 3.88861 89.3531 2.88895C87.1392 1.37468 84.4823 0.489258 81.6401 0.489258H48.3025V71.511H56.2021V71.5062H91.367C93.6667 71.5062 95.5664 69.5779 95.5664 67.2213L95.6235 14.8013C95.6235 11.7873 94.695 8.95916 93.1096 6.64542Z" fill="#040000"/>
</svg>
