<svg width="33" height="24" viewBox="0 0 33 24" fill="none" xmlns="http://www.w3.org/2000/svg">
<path d="M0.257746 7.85714H5.52797C5.56182 7.85717 5.59535 7.84905 5.62664 7.83323C5.65792 7.81741 5.68634 7.79421 5.71028 7.76495C5.73422 7.73569 5.7532 7.70095 5.76615 7.66271C5.77909 7.62448 5.78574 7.5835 5.78571 7.54212V6.60074C5.78574 6.55936 5.77909 6.51838 5.76615 6.48014C5.7532 6.44191 5.73422 6.40717 5.71028 6.37791C5.68634 6.34865 5.65792 6.32545 5.62664 6.30963C5.59535 6.29381 5.56182 6.28568 5.52797 6.28571H0.257746C0.223891 6.28568 0.190362 6.29381 0.159079 6.30963C0.127796 6.32545 0.0993722 6.34865 0.0754331 6.37791C0.0514939 6.40717 0.0325096 6.44191 0.019566 6.48014C0.00662242 6.51838 -2.63399e-05 6.55936 7.84198e-08 6.60074V7.54212C-2.63399e-05 7.5835 0.00662242 7.62448 0.019566 7.66271C0.0325096 7.70095 0.0514939 7.73569 0.0754331 7.76495C0.0993722 7.79421 0.127796 7.81741 0.159079 7.83323C0.190362 7.84905 0.223891 7.85717 0.257746 7.85714ZM0.257746 1.57143H5.52797C5.56182 1.57146 5.59535 1.56333 5.62664 1.54751C5.65792 1.53169 5.68634 1.50849 5.71028 1.47923C5.73422 1.44997 5.7532 1.41523 5.76615 1.377C5.77909 1.33876 5.78574 1.29778 5.78571 1.25641V0.315022C5.78574 0.273644 5.77909 0.232665 5.76615 0.19443C5.7532 0.156196 5.73422 0.121455 5.71028 0.092196C5.68634 0.062937 5.65792 0.0397339 5.62664 0.0239139C5.59535 0.00809402 5.56182 -3.21932e-05 5.52797 9.58468e-08H0.257746C0.223891 -3.21932e-05 0.190362 0.00809402 0.159079 0.0239139C0.127796 0.0397339 0.0993722 0.062937 0.0754331 0.092196C0.0514939 0.121455 0.0325096 0.156196 0.019566 0.19443C0.00662242 0.232665 -2.63399e-05 0.273644 7.84198e-08 0.315022V1.25641C-2.63399e-05 1.29778 0.00662242 1.33876 0.019566 1.377C0.0325096 1.41523 0.0514939 1.44997 0.0754331 1.47923C0.0993722 1.50849 0.127796 1.53169 0.159079 1.54751C0.190362 1.56333 0.223891 1.57146 0.257746 1.57143ZM8.67857 3.14286H0.321429C0.23618 3.14286 0.154424 3.18425 0.0941443 3.25792C0.0338648 3.3316 7.84198e-08 3.43152 7.84198e-08 3.53571V4.32143C7.84198e-08 4.42562 0.0338648 4.52555 0.0941443 4.59922C0.154424 4.6729 0.23618 4.71429 0.321429 4.71429H8.67857C8.76382 4.71429 8.84558 4.6729 8.90586 4.59922C8.96614 4.52555 9 4.42562 9 4.32143V3.53571C9 3.43152 8.96614 3.3316 8.90586 3.25792C8.84558 3.18425 8.76382 3.14286 8.67857 3.14286ZM8.67857 9.42857H0.321429C0.23618 9.42857 0.154424 9.46996 0.0941443 9.54364C0.0338648 9.61731 7.84198e-08 9.71724 7.84198e-08 9.82143V10.6071C7.84198e-08 10.7113 0.0338648 10.8113 0.0941443 10.8849C0.154424 10.9586 0.23618 11 0.321429 11H8.67857C8.76382 11 8.84558 10.9586 8.90586 10.8849C8.96614 10.8113 9 10.7113 9 10.6071V9.82143C9 9.71724 8.96614 9.61731 8.90586 9.54364C8.84558 9.46996 8.76382 9.42857 8.67857 9.42857Z" fill="white"/>
<path d="M0.257746 20.8571H5.52797C5.56182 20.8572 5.59535 20.849 5.62664 20.8332C5.65792 20.8174 5.68634 20.7942 5.71028 20.7649C5.73422 20.7357 5.7532 20.7009 5.76615 20.6627C5.77909 20.6245 5.78574 20.5835 5.78571 20.5421V19.6007C5.78574 19.5594 5.77909 19.5184 5.76615 19.4801C5.7532 19.4419 5.73422 19.4072 5.71028 19.3779C5.68634 19.3487 5.65792 19.3254 5.62664 19.3096C5.59535 19.2938 5.56182 19.2857 5.52797 19.2857H0.257746C0.223891 19.2857 0.190362 19.2938 0.159079 19.3096C0.127796 19.3254 0.0993722 19.3487 0.0754331 19.3779C0.0514939 19.4072 0.0325096 19.4419 0.019566 19.4801C0.00662242 19.5184 -2.63399e-05 19.5594 7.84198e-08 19.6007V20.5421C-2.63399e-05 20.5835 0.00662242 20.6245 0.019566 20.6627C0.0325096 20.7009 0.0514939 20.7357 0.0754331 20.7649C0.0993722 20.7942 0.127796 20.8174 0.159079 20.8332C0.190362 20.849 0.223891 20.8572 0.257746 20.8571ZM0.257746 14.5714H5.52797C5.56182 14.5715 5.59535 14.5633 5.62664 14.5475C5.65792 14.5317 5.68634 14.5085 5.71028 14.4792C5.73422 14.45 5.7532 14.4152 5.76615 14.377C5.77909 14.3388 5.78574 14.2978 5.78571 14.2564V13.315C5.78574 13.2736 5.77909 13.2327 5.76615 13.1944C5.7532 13.1562 5.73422 13.1215 5.71028 13.0922C5.68634 13.0629 5.65792 13.0397 5.62664 13.0239C5.59535 13.0081 5.56182 13 5.52797 13H0.257746C0.223891 13 0.190362 13.0081 0.159079 13.0239C0.127796 13.0397 0.0993722 13.0629 0.0754331 13.0922C0.0514939 13.1215 0.0325096 13.1562 0.019566 13.1944C0.00662242 13.2327 -2.63399e-05 13.2736 7.84198e-08 13.315V14.2564C-2.63399e-05 14.2978 0.00662242 14.3388 0.019566 14.377C0.0325096 14.4152 0.0514939 14.45 0.0754331 14.4792C0.0993722 14.5085 0.127796 14.5317 0.159079 14.5475C0.190362 14.5633 0.223891 14.5715 0.257746 14.5714ZM8.67857 16.1429H0.321429C0.23618 16.1429 0.154424 16.1842 0.0941443 16.2579C0.0338648 16.3316 7.84198e-08 16.4315 7.84198e-08 16.5357V17.3214C7.84198e-08 17.4256 0.0338648 17.5255 0.0941443 17.5992C0.154424 17.6729 0.23618 17.7143 0.321429 17.7143H8.67857C8.76382 17.7143 8.84558 17.6729 8.90586 17.5992C8.96614 17.5255 9 17.4256 9 17.3214V16.5357C9 16.4315 8.96614 16.3316 8.90586 16.2579C8.84558 16.1842 8.76382 16.1429 8.67857 16.1429ZM8.67857 22.4286H0.321429C0.23618 22.4286 0.154424 22.47 0.0941443 22.5436C0.0338648 22.6173 7.84198e-08 22.7172 7.84198e-08 22.8214V23.6071C7.84198e-08 23.7113 0.0338648 23.8113 0.0941443 23.8849C0.154424 23.9586 0.23618 24 0.321429 24H8.67857C8.76382 24 8.84558 23.9586 8.90586 23.8849C8.96614 23.8113 9 23.7113 9 23.6071V22.8214C9 22.7172 8.96614 22.6173 8.90586 22.5436C8.84558 22.47 8.76382 22.4286 8.67857 22.4286Z" fill="white"/>
<path fill-rule="evenodd" clip-rule="evenodd" d="M28.2343 7.0241C28.3175 6.99731 28.4062 6.99276 28.4916 7.01092C28.5771 7.02908 28.6563 7.06931 28.7213 7.1276L32.8388 10.8171C32.9047 10.8761 32.9538 10.9515 32.981 11.0357C33.0083 11.1198 33.0127 11.2097 32.9938 11.2961L31.8173 16.6876C31.7978 16.7773 31.754 16.8598 31.6907 16.9262C31.6273 16.9926 31.547 17.0403 31.4583 17.0641L26.1643 18.4831C26.0801 18.5058 25.9913 18.5059 25.9069 18.4837C25.8225 18.4614 25.7455 18.4174 25.6833 18.3561L23.4038 16.1061C23.3571 16.06 23.3199 16.0051 23.2943 15.9446C23.2688 15.8841 23.2554 15.8191 23.255 15.7535C23.2545 15.6878 23.267 15.6227 23.2918 15.5618C23.3165 15.501 23.353 15.4456 23.3991 15.3988C23.4452 15.3521 23.5001 15.3149 23.5606 15.2894C23.6211 15.2638 23.6861 15.2504 23.7517 15.25C23.8174 15.2496 23.8825 15.2621 23.9434 15.2868C24.0042 15.3115 24.0596 15.348 24.1063 15.3941L26.1818 17.4431L30.9053 16.1771L31.9548 11.3671L28.2678 8.0641L23.4893 9.6006L22.9803 11.1556C22.9364 11.2782 22.8464 11.3787 22.7294 11.436C22.6125 11.4932 22.4778 11.5025 22.3541 11.462C22.2304 11.4215 22.1273 11.3343 22.0669 11.219C22.0064 11.1037 21.9933 10.9694 22.0303 10.8446L22.6183 9.0471C22.643 8.97214 22.685 8.90407 22.7409 8.84845C22.7969 8.79283 22.8652 8.75125 22.9403 8.7271L28.2343 7.0241Z" fill="white"/>
<path fill-rule="evenodd" clip-rule="evenodd" d="M27.3658 12.0126C27.4299 12.0271 27.4905 12.0541 27.5441 12.0921C27.5977 12.13 27.6433 12.1782 27.6783 12.2337C27.7134 12.2893 27.7371 12.3512 27.7481 12.416C27.7592 12.4807 27.7574 12.547 27.7428 12.6111L26.4928 18.1111C26.4624 18.2393 26.3825 18.3503 26.2706 18.4199C26.1587 18.4896 26.0239 18.5122 25.8954 18.483C25.7669 18.4537 25.6551 18.3749 25.5844 18.2637C25.5137 18.1525 25.4898 18.0179 25.5178 17.8891L26.7678 12.3891C26.7973 12.2599 26.8768 12.1477 26.9889 12.0771C27.1011 12.0065 27.2366 11.9833 27.3658 12.0126Z" fill="white"/>
<path fill-rule="evenodd" clip-rule="evenodd" d="M22.8738 8.9266C22.9163 8.87648 22.9682 8.83522 23.0267 8.80517C23.0851 8.77513 23.1488 8.7569 23.2143 8.75151C23.2798 8.74612 23.3457 8.75369 23.4082 8.77378C23.4708 8.79387 23.5287 8.82609 23.5788 8.8686L27.2108 11.9486L30.6238 11.0176C30.7518 10.9827 30.8884 11.0001 31.0035 11.0659C31.1187 11.1318 31.203 11.2406 31.2378 11.3686C31.2727 11.4966 31.2553 11.6331 31.1895 11.7483C31.1237 11.8634 31.0148 11.9477 30.8868 11.9826L27.2198 12.9826C27.1415 13.004 27.0591 13.006 26.9798 12.9884C26.9006 12.9708 26.8268 12.9341 26.7648 12.8816L22.9318 9.6316C22.8817 9.58913 22.8405 9.5372 22.8104 9.47878C22.7804 9.42036 22.7621 9.35659 22.7567 9.29112C22.7514 9.22565 22.7589 9.15975 22.779 9.09721C22.7991 9.03466 22.8313 8.97669 22.8738 8.9266ZM16.3763 9.6386C16.4394 9.57834 16.517 9.5356 16.6017 9.51464C16.6863 9.49368 16.775 9.49522 16.8588 9.5191L20.9938 10.6996C21.0778 10.7236 21.154 10.7692 21.2149 10.8318C21.2758 10.8945 21.3192 10.972 21.3408 11.0566L22.4893 15.5426C22.5123 15.6319 22.5101 15.7258 22.483 15.814C22.4559 15.9022 22.405 15.9811 22.3358 16.0421L19.1193 18.8751C19.0565 18.9305 18.9808 18.9693 18.8991 18.9878C18.8174 19.0063 18.7324 19.004 18.6518 18.9811L14.5168 17.8001C14.434 17.7765 14.3586 17.7318 14.2981 17.6705C14.2375 17.6092 14.1939 17.5333 14.1713 17.4501L13.0223 13.2001C12.9989 13.1133 12.9993 13.0218 13.0235 12.9352C13.0477 12.8486 13.0948 12.7702 13.1598 12.7081L16.3763 9.6386ZM16.8593 10.5596L14.0653 13.2261L15.0628 16.9161L18.6633 17.9441L21.4448 15.4941L20.4433 11.5826L16.8593 10.5596Z" fill="white"/>
<path fill-rule="evenodd" clip-rule="evenodd" d="M19.8588 12.1466C19.9526 12.2404 20.0052 12.3675 20.0052 12.5001C20.0052 12.6327 19.9526 12.7598 19.8588 12.8536L17.8588 14.8536C17.7962 14.9162 17.7181 14.961 17.6324 14.9835C17.5467 15.006 17.4567 15.0053 17.3713 14.9816L13.3713 13.8706C13.3075 13.8536 13.2476 13.8241 13.1952 13.7838C13.1428 13.7435 13.0989 13.6932 13.0661 13.6358C13.0332 13.5784 13.0121 13.5151 13.0039 13.4495C12.9957 13.3839 13.0005 13.3174 13.0182 13.2537C13.0359 13.19 13.066 13.1304 13.1069 13.0785C13.1477 13.0265 13.1985 12.9831 13.2562 12.9509C13.3139 12.9187 13.3775 12.8982 13.4431 12.8907C13.5088 12.8832 13.5753 12.8887 13.6388 12.9071L17.3578 13.9401L19.1518 12.1466C19.2456 12.0529 19.3728 12.0002 19.5053 12.0002C19.6379 12.0002 19.7651 12.0529 19.8588 12.1466Z" fill="white"/>
<path fill-rule="evenodd" clip-rule="evenodd" d="M17.3838 14.0151C17.5125 13.9829 17.6486 14.0031 17.7624 14.0712C17.8761 14.1394 17.9581 14.25 17.9903 14.3786L18.9903 18.3786C19.0068 18.4425 19.0105 18.509 19.0012 18.5743C18.9919 18.6396 18.9697 18.7024 18.936 18.7591C18.9023 18.8158 18.8577 18.8652 18.8048 18.9046C18.7519 18.944 18.6917 18.9725 18.6277 18.9886C18.5637 19.0046 18.4972 19.0078 18.432 18.998C18.3667 18.9882 18.3041 18.9656 18.2476 18.9315C18.1912 18.8974 18.142 18.8525 18.103 18.7993C18.064 18.7461 18.0359 18.6857 18.0203 18.6216L17.0203 14.6216C16.9881 14.493 17.0083 14.3568 17.0765 14.2431C17.1446 14.1293 17.2552 14.0473 17.3838 14.0151Z" fill="white"/>
</svg>
