<svg width="51" height="51" viewBox="0 0 51 51" fill="none" xmlns="http://www.w3.org/2000/svg">
<path d="M48.97 26.8098C48.0844 26.8098 26.0624 26.8098 24.7852 26.8098C22.4168 26.8098 20.4971 28.7297 20.4971 31.0979C20.4971 33.4661 22.4168 35.386 24.7852 35.386H26.7998L19.5604 39.9483L8.19512 32.7859C6.19173 31.5236 3.54392 32.1238 2.28117 34.1273C1.01858 36.1309 1.61926 38.7787 3.62265 40.0413L17.2742 48.6446C18.6711 49.5248 20.4496 49.525 21.8467 48.6446L42.885 35.3858H48.97V26.8098Z" fill="#00EE00"/>
<path d="M23.3496 15.8035C23.3496 19.1311 20.6521 21.8288 17.3243 21.8288C13.9968 21.8288 11.2991 19.1313 11.2991 15.8035C11.2991 12.476 17.3243 1.8772 17.3243 1.8772C17.3243 1.8772 23.3496 12.4758 23.3496 15.8035Z" fill="#00EE00"/>
<path d="M48.9699 25.5234C48.0975 25.5234 26.0734 25.5234 24.7851 25.5234C21.7112 25.5234 19.2106 28.0241 19.2106 31.0979C19.2106 33.5024 20.7409 35.5562 22.8786 36.3366L19.5603 38.4278L8.88078 31.6976C6.28031 30.059 2.83149 30.8413 1.19259 33.4416C-0.446149 36.0421 0.336169 39.4911 2.93664 41.1298L16.5882 49.7331C18.4038 50.8773 20.7156 50.8782 22.5323 49.7331L43.2565 36.6725H48.9699C49.6804 36.6725 50.2563 36.0965 50.2563 35.386V26.8099C50.2563 26.0994 49.6804 25.5234 48.9699 25.5234ZM47.6835 34.0996H42.885C42.6422 34.0996 42.4045 34.1682 42.199 34.2977L21.1605 47.5565C20.1831 48.1726 18.9381 48.1731 17.9597 47.5565L4.30814 38.9532C2.90799 38.0707 2.48673 36.2136 3.36905 34.8135C4.25153 33.4133 6.10862 32.9921 7.50893 33.8744L18.8743 41.0369C19.2933 41.301 19.8269 41.301 20.2459 41.0369L27.171 36.6726H29.5022C30.2126 36.6726 30.7886 36.0967 30.7886 35.3862C30.7886 34.6758 30.2126 34.0998 29.5022 34.0998C26.8436 34.0998 27.4156 34.0998 24.7849 34.0998C23.1297 34.0998 21.7833 32.7532 21.7833 31.0981C21.7833 29.4429 23.1297 28.0965 24.7849 28.0965C26.6031 28.0965 46.9255 28.0965 47.6833 28.0965L47.6835 34.0996Z" fill="black"/>
<path d="M17.3244 23.115C21.3561 23.115 24.6359 19.835 24.6359 15.8033C24.6359 12.56 20.0048 3.98759 18.4427 1.24133C17.9503 0.375133 16.6987 0.37479 16.2061 1.24133C14.6183 4.0327 10.0127 12.566 10.0127 15.8033C10.0127 19.835 13.2926 23.115 17.3244 23.115ZM17.3244 4.53938C19.4883 8.56778 22.0631 13.9608 22.0631 15.8032C22.0631 18.4161 19.9372 20.542 17.3244 20.542C14.7116 20.542 12.5855 18.4161 12.5855 15.8032C12.5855 13.962 15.1603 8.56829 17.3244 4.53938Z" fill="black"/>
</svg>
