<svg width="52" height="14" viewBox="0 0 52 14" fill="none" xmlns="http://www.w3.org/2000/svg">
<g clip-path="url(#clip0_549_2)">
<g clip-path="url(#clip1_549_2)">
<rect width="15" height="14" fill="#FF76CE"/>
<path d="M6.98221 4.96429C6.76197 4.96429 6.57745 4.89583 6.42864 4.75893C6.28578 4.61607 6.21436 4.44048 6.21436 4.23214C6.21436 4.02381 6.28578 3.85119 6.42864 3.71429C6.57745 3.57143 6.76197 3.5 6.98221 3.5C7.20245 3.5 7.384 3.57143 7.52686 3.71429C7.67567 3.85119 7.75007 4.02381 7.75007 4.23214C7.75007 4.44048 7.67567 4.61607 7.52686 4.75893C7.384 4.89583 7.20245 4.96429 6.98221 4.96429ZM7.59828 5.55357V10.5H6.34828V5.55357H7.59828Z" fill="white"/>
</g>
<rect x="0.5" y="0.5" width="14" height="13" stroke="#FF76CE"/>
<path d="M19.045 5.51V9H18.345V5.51H19.045ZM21.2716 6.19C21.6016 6.19 21.8683 6.295 22.0716 6.505C22.2749 6.71167 22.3766 7.00167 22.3766 7.375V9H21.6766V7.47C21.6766 7.25 21.6216 7.08167 21.5116 6.965C21.4016 6.845 21.2516 6.785 21.0616 6.785C20.8683 6.785 20.7149 6.845 20.6016 6.965C20.4916 7.08167 20.4366 7.25 20.4366 7.47V9H19.7366V6.23H20.4366V6.575C20.5299 6.455 20.6483 6.36167 20.7916 6.295C20.9383 6.225 21.0983 6.19 21.2716 6.19ZM24.3123 6.805H23.8273V9H23.1173V6.805H22.8023V6.23H23.1173V6.09C23.1173 5.75 23.2139 5.5 23.4073 5.34C23.6006 5.18 23.8923 5.105 24.2823 5.115V5.705C24.1123 5.70167 23.9939 5.73 23.9273 5.79C23.8606 5.85 23.8273 5.95833 23.8273 6.115V6.23H24.3123V6.805ZM25.9959 9.045C25.7292 9.045 25.4892 8.98667 25.2759 8.87C25.0626 8.75 24.8942 8.58167 24.7709 8.365C24.6509 8.14833 24.5909 7.89833 24.5909 7.615C24.5909 7.33167 24.6526 7.08167 24.7759 6.865C24.9026 6.64833 25.0742 6.48167 25.2909 6.365C25.5076 6.245 25.7492 6.185 26.0159 6.185C26.2826 6.185 26.5242 6.245 26.7409 6.365C26.9576 6.48167 27.1276 6.64833 27.2509 6.865C27.3776 7.08167 27.4409 7.33167 27.4409 7.615C27.4409 7.89833 27.3759 8.14833 27.2459 8.365C27.1192 8.58167 26.9459 8.75 26.7259 8.87C26.5092 8.98667 26.2659 9.045 25.9959 9.045ZM25.9959 8.435C26.1226 8.435 26.2409 8.405 26.3509 8.345C26.4642 8.28167 26.5542 8.18833 26.6209 8.065C26.6876 7.94167 26.7209 7.79167 26.7209 7.615C26.7209 7.35167 26.6509 7.15 26.5109 7.01C26.3742 6.86667 26.2059 6.795 26.0059 6.795C25.8059 6.795 25.6376 6.86667 25.5009 7.01C25.3676 7.15 25.3009 7.35167 25.3009 7.615C25.3009 7.87833 25.3659 8.08167 25.4959 8.225C25.6292 8.365 25.7959 8.435 25.9959 8.435ZM28.6544 6.66C28.7444 6.51333 28.861 6.39833 29.0044 6.315C29.151 6.23167 29.3177 6.19 29.5044 6.19V6.925H29.3194C29.0994 6.925 28.9327 6.97667 28.8194 7.08C28.7094 7.18333 28.6544 7.36333 28.6544 7.62V9H27.9544V6.23H28.6544V6.66ZM33.4159 6.19C33.7559 6.19 34.0292 6.295 34.2359 6.505C34.4459 6.71167 34.5509 7.00167 34.5509 7.375V9H33.8509V7.47C33.8509 7.25333 33.7959 7.08833 33.6859 6.975C33.5759 6.85833 33.4259 6.8 33.2359 6.8C33.0459 6.8 32.8942 6.85833 32.7809 6.975C32.6709 7.08833 32.6159 7.25333 32.6159 7.47V9H31.9159V7.47C31.9159 7.25333 31.8609 7.08833 31.7509 6.975C31.6409 6.85833 31.4909 6.8 31.3009 6.8C31.1075 6.8 30.9542 6.85833 30.8409 6.975C30.7309 7.08833 30.6759 7.25333 30.6759 7.47V9H29.9759V6.23H30.6759V6.565C30.7659 6.44833 30.8809 6.35667 31.0209 6.29C31.1642 6.22333 31.3209 6.19 31.4909 6.19C31.7075 6.19 31.9009 6.23667 32.0709 6.33C32.2409 6.42 32.3725 6.55 32.4659 6.72C32.5559 6.56 32.6859 6.43167 32.8559 6.335C33.0292 6.23833 33.2159 6.19 33.4159 6.19ZM35.0351 7.605C35.0351 7.325 35.0901 7.07667 35.2001 6.86C35.3135 6.64333 35.4651 6.47667 35.6551 6.36C35.8485 6.24333 36.0635 6.185 36.3001 6.185C36.5068 6.185 36.6868 6.22667 36.8401 6.31C36.9968 6.39333 37.1218 6.49833 37.2151 6.625V6.23H37.9201V9H37.2151V8.595C37.1251 8.725 37.0001 8.83333 36.8401 8.92C36.6835 9.00333 36.5018 9.045 36.2951 9.045C36.0618 9.045 35.8485 8.985 35.6551 8.865C35.4651 8.745 35.3135 8.57667 35.2001 8.36C35.0901 8.14 35.0351 7.88833 35.0351 7.605ZM37.2151 7.615C37.2151 7.445 37.1818 7.3 37.1151 7.18C37.0485 7.05667 36.9585 6.96333 36.8451 6.9C36.7318 6.83333 36.6101 6.8 36.4801 6.8C36.3501 6.8 36.2301 6.83167 36.1201 6.895C36.0101 6.95833 35.9201 7.05167 35.8501 7.175C35.7835 7.295 35.7501 7.43833 35.7501 7.605C35.7501 7.77167 35.7835 7.91833 35.8501 8.045C35.9201 8.16833 36.0101 8.26333 36.1201 8.33C36.2335 8.39667 36.3535 8.43 36.4801 8.43C36.6101 8.43 36.7318 8.39833 36.8451 8.335C36.9585 8.26833 37.0485 8.175 37.1151 8.055C37.1818 7.93167 37.2151 7.785 37.2151 7.615ZM39.4188 6.805V8.145C39.4188 8.23833 39.4405 8.30667 39.4838 8.35C39.5305 8.39 39.6071 8.41 39.7138 8.41H40.0388V9H39.5988C39.0088 9 38.7138 8.71333 38.7138 8.14V6.805H38.3838V6.23H38.7138V5.545H39.4188V6.23H40.0388V6.805H39.4188ZM40.8973 5.9C40.7739 5.9 40.6706 5.86167 40.5873 5.785C40.5073 5.705 40.4673 5.60667 40.4673 5.49C40.4673 5.37333 40.5073 5.27667 40.5873 5.2C40.6706 5.12 40.7739 5.08 40.8973 5.08C41.0206 5.08 41.1223 5.12 41.2023 5.2C41.2856 5.27667 41.3273 5.37333 41.3273 5.49C41.3273 5.60667 41.2856 5.705 41.2023 5.785C41.1223 5.86167 41.0206 5.9 40.8973 5.9ZM41.2423 6.23V9H40.5423V6.23H41.2423ZM43.1639 9.045C42.8972 9.045 42.6572 8.98667 42.4439 8.87C42.2305 8.75 42.0622 8.58167 41.9389 8.365C41.8189 8.14833 41.7589 7.89833 41.7589 7.615C41.7589 7.33167 41.8205 7.08167 41.9439 6.865C42.0705 6.64833 42.2422 6.48167 42.4589 6.365C42.6755 6.245 42.9172 6.185 43.1839 6.185C43.4505 6.185 43.6922 6.245 43.9089 6.365C44.1255 6.48167 44.2955 6.64833 44.4189 6.865C44.5455 7.08167 44.6089 7.33167 44.6089 7.615C44.6089 7.89833 44.5439 8.14833 44.4139 8.365C44.2872 8.58167 44.1139 8.75 43.8939 8.87C43.6772 8.98667 43.4339 9.045 43.1639 9.045ZM43.1639 8.435C43.2905 8.435 43.4089 8.405 43.5189 8.345C43.6322 8.28167 43.7222 8.18833 43.7889 8.065C43.8555 7.94167 43.8889 7.79167 43.8889 7.615C43.8889 7.35167 43.8189 7.15 43.6789 7.01C43.5422 6.86667 43.3739 6.795 43.1739 6.795C42.9739 6.795 42.8055 6.86667 42.6689 7.01C42.5355 7.15 42.4689 7.35167 42.4689 7.615C42.4689 7.87833 42.5339 8.08167 42.6639 8.225C42.7972 8.365 42.9639 8.435 43.1639 8.435ZM46.6573 6.19C46.9873 6.19 47.254 6.295 47.4573 6.505C47.6607 6.71167 47.7623 7.00167 47.7623 7.375V9H47.0623V7.47C47.0623 7.25 47.0073 7.08167 46.8973 6.965C46.7873 6.845 46.6373 6.785 46.4473 6.785C46.254 6.785 46.1007 6.845 45.9873 6.965C45.8773 7.08167 45.8223 7.25 45.8223 7.47V9H45.1223V6.23H45.8223V6.575C45.9157 6.455 46.034 6.36167 46.1773 6.295C46.324 6.225 46.484 6.19 46.6573 6.19Z" fill="#FF76CE"/>
</g>
<rect x="0.5" y="0.5" width="51" height="13" stroke="#FF76CE"/>
<defs>
<clipPath id="clip0_549_2">
<rect width="52" height="14" fill="white"/>
</clipPath>
<clipPath id="clip1_549_2">
<rect width="15" height="14" fill="white"/>
</clipPath>
</defs>
</svg>
