<svg
    width="45"
    height="14"
    viewBox="0 0 45 14"
    fill="none"
    xmlns="http://www.w3.org/2000/svg"
>
    <g clip-path="url(#clip0_549_2)">
        <g clip-path="url(#clip1_549_2)">
            <rect width="15" height="14" fill="#FF76CE" />
            <path
                d="M6.65083 8.93006V8.84672C6.65297 8.45992 6.6893 8.15219 6.75982 7.92353C6.83248 7.69487 6.93505 7.51109 7.06755 7.37219C7.20004 7.23114 7.36139 7.10186 7.55158 6.98432C7.68194 6.90312 7.7984 6.81443 7.90098 6.71826C8.00569 6.61996 8.08797 6.51098 8.1478 6.3913C8.20764 6.26949 8.23756 6.1338 8.23756 5.98421C8.23756 5.81538 8.19802 5.669 8.11895 5.54505C8.03988 5.42111 7.93303 5.32494 7.7984 5.25656C7.66591 5.18817 7.51739 5.15398 7.35284 5.15398C7.20111 5.15398 7.05686 5.1871 6.9201 5.25335C6.78546 5.31746 6.67327 5.41576 6.58352 5.54826C6.4959 5.67861 6.44675 5.84423 6.43606 6.04511H5.29491C5.30559 5.63908 5.40389 5.2993 5.58981 5.02576C5.77787 4.75222 6.02576 4.54707 6.33349 4.4103C6.64335 4.27354 6.98527 4.20515 7.35925 4.20515C7.76742 4.20515 8.12643 4.27674 8.4363 4.41992C8.7483 4.5631 8.99085 4.76718 9.16395 5.03217C9.33918 5.29502 9.4268 5.60702 9.4268 5.96818C9.4268 6.2118 9.38726 6.42977 9.30819 6.6221C9.23126 6.81443 9.12121 6.98539 8.97803 7.13498C8.83485 7.28457 8.66496 7.41813 8.46835 7.53567C8.29526 7.64252 8.15314 7.75364 8.04202 7.86904C7.93303 7.98444 7.85183 8.12014 7.7984 8.27614C7.74711 8.43 7.7204 8.6202 7.71827 8.84672V8.93006H6.65083ZM7.20859 10.9303C7.01626 10.9303 6.85064 10.8619 6.71174 10.7251C6.57283 10.5884 6.50338 10.4217 6.50338 10.2251C6.50338 10.0328 6.57283 9.8682 6.71174 9.73144C6.85064 9.59467 7.01626 9.52628 7.20859 9.52628C7.39878 9.52628 7.56333 9.59467 7.70224 9.73144C7.84328 9.8682 7.9138 10.0328 7.9138 10.2251C7.9138 10.3554 7.88068 10.474 7.81443 10.5809C7.75032 10.6877 7.66484 10.7732 7.55799 10.8373C7.45328 10.8993 7.33681 10.9303 7.20859 10.9303Z"
                fill="white"
            />
        </g>
        <rect x="0.5" y="0.5" width="14" height="13" stroke="#FF76CE" />
        <path
            d="M20.945 9.615L20.415 8.98C20.2683 9.01667 20.1183 9.035 19.965 9.035C19.6383 9.035 19.3383 8.95833 19.065 8.805C18.7917 8.65167 18.575 8.44 18.415 8.17C18.255 7.89667 18.175 7.58833 18.175 7.245C18.175 6.905 18.255 6.6 18.415 6.33C18.575 6.05667 18.7917 5.84333 19.065 5.69C19.3383 5.53667 19.6383 5.46 19.965 5.46C20.295 5.46 20.595 5.53667 20.865 5.69C21.1383 5.84333 21.3533 6.05667 21.51 6.33C21.67 6.6 21.75 6.905 21.75 7.245C21.75 7.555 21.6833 7.83833 21.55 8.095C21.42 8.34833 21.2417 8.555 21.015 8.715L21.815 9.615H20.945ZM18.895 7.245C18.895 7.47833 18.94 7.68333 19.03 7.86C19.12 8.03667 19.245 8.17333 19.405 8.27C19.5683 8.36333 19.755 8.41 19.965 8.41C20.175 8.41 20.36 8.36333 20.52 8.27C20.68 8.17333 20.805 8.03667 20.895 7.86C20.985 7.68333 21.03 7.47833 21.03 7.245C21.03 7.01167 20.985 6.80833 20.895 6.635C20.805 6.45833 20.68 6.32333 20.52 6.23C20.36 6.13667 20.175 6.09 19.965 6.09C19.755 6.09 19.5683 6.13667 19.405 6.23C19.245 6.32333 19.12 6.45833 19.03 6.635C18.94 6.80833 18.895 7.01167 18.895 7.245ZM24.8955 6.23V9H24.1905V8.65C24.1005 8.77 23.9822 8.865 23.8355 8.935C23.6922 9.00167 23.5355 9.035 23.3655 9.035C23.1489 9.035 22.9572 8.99 22.7905 8.9C22.6239 8.80667 22.4922 8.67167 22.3955 8.495C22.3022 8.315 22.2555 8.10167 22.2555 7.855V6.23H22.9555V7.755C22.9555 7.975 23.0105 8.145 23.1205 8.265C23.2305 8.38167 23.3805 8.44 23.5705 8.44C23.7639 8.44 23.9155 8.38167 24.0255 8.265C24.1355 8.145 24.1905 7.975 24.1905 7.755V6.23H24.8955ZM28.1612 7.555C28.1612 7.655 28.1545 7.745 28.1412 7.825H26.1162C26.1329 8.025 26.2029 8.18167 26.3262 8.295C26.4495 8.40833 26.6012 8.465 26.7812 8.465C27.0412 8.465 27.2262 8.35333 27.3362 8.13H28.0912C28.0112 8.39667 27.8579 8.61667 27.6312 8.79C27.4045 8.96 27.1262 9.045 26.7962 9.045C26.5295 9.045 26.2895 8.98667 26.0762 8.87C25.8662 8.75 25.7012 8.58167 25.5812 8.365C25.4645 8.14833 25.4062 7.89833 25.4062 7.615C25.4062 7.32833 25.4645 7.07667 25.5812 6.86C25.6979 6.64333 25.8612 6.47667 26.0712 6.36C26.2812 6.24333 26.5229 6.185 26.7962 6.185C27.0595 6.185 27.2945 6.24167 27.5012 6.355C27.7112 6.46833 27.8729 6.63 27.9862 6.84C28.1029 7.04667 28.1612 7.285 28.1612 7.555ZM27.4362 7.355C27.4329 7.175 27.3679 7.03167 27.2412 6.925C27.1145 6.815 26.9595 6.76 26.7762 6.76C26.6029 6.76 26.4562 6.81333 26.3362 6.92C26.2195 7.02333 26.1479 7.16833 26.1212 7.355H27.4362ZM29.7321 9.045C29.5055 9.045 29.3021 9.005 29.1221 8.925C28.9421 8.84167 28.7988 8.73 28.6921 8.59C28.5888 8.45 28.5321 8.295 28.5221 8.125H29.2271C29.2405 8.23167 29.2921 8.32 29.3821 8.39C29.4755 8.46 29.5905 8.495 29.7271 8.495C29.8605 8.495 29.9638 8.46833 30.0371 8.415C30.1138 8.36167 30.1521 8.29333 30.1521 8.21C30.1521 8.12 30.1055 8.05333 30.0121 8.01C29.9221 7.96333 29.7771 7.91333 29.5771 7.86C29.3705 7.81 29.2005 7.75833 29.0671 7.705C28.9371 7.65167 28.8238 7.57 28.7271 7.46C28.6338 7.35 28.5871 7.20167 28.5871 7.015C28.5871 6.86167 28.6305 6.72167 28.7171 6.595C28.8071 6.46833 28.9338 6.36833 29.0971 6.295C29.2638 6.22167 29.4588 6.185 29.6821 6.185C30.0121 6.185 30.2755 6.26833 30.4721 6.435C30.6688 6.59833 30.7771 6.82 30.7971 7.1H30.1271C30.1171 6.99 30.0705 6.90333 29.9871 6.84C29.9071 6.77333 29.7988 6.74 29.6621 6.74C29.5355 6.74 29.4371 6.76333 29.3671 6.81C29.3005 6.85667 29.2671 6.92167 29.2671 7.005C29.2671 7.09833 29.3138 7.17 29.4071 7.22C29.5005 7.26667 29.6455 7.315 29.8421 7.365C30.0421 7.415 30.2071 7.46667 30.3371 7.52C30.4671 7.57333 30.5788 7.65667 30.6721 7.77C30.7688 7.88 30.8188 8.02667 30.8221 8.21C30.8221 8.37 30.7771 8.51333 30.6871 8.64C30.6005 8.76667 30.4738 8.86667 30.3071 8.94C30.1438 9.01 29.9521 9.045 29.7321 9.045ZM32.2118 6.805V8.145C32.2118 8.23833 32.2334 8.30667 32.2768 8.35C32.3234 8.39 32.4001 8.41 32.5068 8.41H32.8318V9H32.3918C31.8018 9 31.5068 8.71333 31.5068 8.14V6.805H31.1768V6.23H31.5068V5.545H32.2118V6.23H32.8318V6.805H32.2118ZM33.6902 5.9C33.5669 5.9 33.4636 5.86167 33.3802 5.785C33.3002 5.705 33.2602 5.60667 33.2602 5.49C33.2602 5.37333 33.3002 5.27667 33.3802 5.2C33.4636 5.12 33.5669 5.08 33.6902 5.08C33.8136 5.08 33.9152 5.12 33.9952 5.2C34.0786 5.27667 34.1202 5.37333 34.1202 5.49C34.1202 5.60667 34.0786 5.705 33.9952 5.785C33.9152 5.86167 33.8136 5.9 33.6902 5.9ZM34.0352 6.23V9H33.3352V6.23H34.0352ZM35.9568 9.045C35.6902 9.045 35.4502 8.98667 35.2368 8.87C35.0235 8.75 34.8552 8.58167 34.7318 8.365C34.6118 8.14833 34.5518 7.89833 34.5518 7.615C34.5518 7.33167 34.6135 7.08167 34.7368 6.865C34.8635 6.64833 35.0352 6.48167 35.2518 6.365C35.4685 6.245 35.7102 6.185 35.9768 6.185C36.2435 6.185 36.4852 6.245 36.7018 6.365C36.9185 6.48167 37.0885 6.64833 37.2118 6.865C37.3385 7.08167 37.4018 7.33167 37.4018 7.615C37.4018 7.89833 37.3368 8.14833 37.2068 8.365C37.0802 8.58167 36.9068 8.75 36.6868 8.87C36.4702 8.98667 36.2268 9.045 35.9568 9.045ZM35.9568 8.435C36.0835 8.435 36.2018 8.405 36.3118 8.345C36.4252 8.28167 36.5152 8.18833 36.5818 8.065C36.6485 7.94167 36.6818 7.79167 36.6818 7.615C36.6818 7.35167 36.6118 7.15 36.4718 7.01C36.3352 6.86667 36.1668 6.795 35.9668 6.795C35.7668 6.795 35.5985 6.86667 35.4618 7.01C35.3285 7.15 35.2618 7.35167 35.2618 7.615C35.2618 7.87833 35.3268 8.08167 35.4568 8.225C35.5902 8.365 35.7568 8.435 35.9568 8.435ZM39.4503 6.19C39.7803 6.19 40.047 6.295 40.2503 6.505C40.4536 6.71167 40.5553 7.00167 40.5553 7.375V9H39.8553V7.47C39.8553 7.25 39.8003 7.08167 39.6903 6.965C39.5803 6.845 39.4303 6.785 39.2403 6.785C39.047 6.785 38.8936 6.845 38.7803 6.965C38.6703 7.08167 38.6153 7.25 38.6153 7.47V9H37.9153V6.23H38.6153V6.575C38.7086 6.455 38.827 6.36167 38.9703 6.295C39.117 6.225 39.277 6.19 39.4503 6.19Z"
            fill="#FF76CE"
        />
    </g>
    <rect x="0.5" y="0.5" width="44" height="13" stroke="#FF76CE" />
    <defs>
        <clipPath id="clip0_549_2">
            <rect width="45" height="14" fill="white" />
        </clipPath>
        <clipPath id="clip1_549_2">
            <rect width="15" height="14" fill="white" />
        </clipPath>
    </defs>
</svg>
