<svg width="30" height="14" viewBox="0 0 30 14" fill="none" xmlns="http://www.w3.org/2000/svg">
<g clip-path="url(#clip0_54_42)">
<rect width="30" height="14" fill="white"/>
<g clip-path="url(#clip1_54_42)">
<rect width="15" height="14" fill="#FF76CE"/>
<path d="M5.33516 10L5.90943 7.78101L4 6.28915L6.51518 6.09286L7.50023 4L8.48528 6.09244L11 6.28874L9.09057 7.78059L9.6653 9.99958L7.50023 8.8218L5.33516 10Z" fill="white"/>
</g>
<rect x="0.5" y="0.5" width="14" height="13" stroke="#FF76CE"/>
<path d="M19.245 8.35V7.66L20.825 5.4H21.78V7.61H22.19V8.35H21.78V9H20.925V8.35H19.245ZM20.985 6.34L20.145 7.61H20.985V6.34ZM23.0938 9.04C22.9438 9.04 22.8205 8.99667 22.7238 8.91C22.6305 8.82 22.5838 8.71 22.5838 8.58C22.5838 8.44667 22.6305 8.335 22.7238 8.245C22.8205 8.155 22.9438 8.11 23.0938 8.11C23.2405 8.11 23.3605 8.155 23.4538 8.245C23.5505 8.335 23.5988 8.44667 23.5988 8.58C23.5988 8.71 23.5505 8.82 23.4538 8.91C23.3605 8.99667 23.2405 9.04 23.0938 9.04ZM26.3499 5.99L25.0949 9H24.2199L25.4899 6.085H23.9349V5.355H26.3499V5.99Z" fill="#FF76CE"/>
</g>
<rect x="0.5" y="0.5" width="29" height="13" stroke="#FF76CE"/>
<defs>
<clipPath id="clip0_54_42">
<rect width="30" height="14" fill="white"/>
</clipPath>
<clipPath id="clip1_54_42">
<rect width="15" height="14" fill="white"/>
</clipPath>
</defs>
</svg>
