<svg width="51" height="50" viewBox="0 0 51 50" fill="none" xmlns="http://www.w3.org/2000/svg">
<path d="M48.97 26.2185C48.0844 26.2185 26.0624 26.2185 24.7852 26.2185C22.4168 26.2185 20.4971 28.1384 20.4971 30.5066C20.4971 32.8748 22.4168 34.7947 24.7852 34.7947H26.7998L19.5604 39.357L8.19512 32.1946C6.19173 30.9323 3.54392 31.5325 2.28117 33.536C1.01858 35.5396 1.61926 38.1874 3.62265 39.45L17.2742 48.0533C18.6711 48.9335 20.4496 48.9337 21.8467 48.0533L42.885 34.7945H48.97V26.2185Z" fill="#FF0C00"/>
<path d="M23.3496 15.2122C23.3496 18.5398 20.6521 21.2375 17.3243 21.2375C13.9968 21.2375 11.2991 18.5399 11.2991 15.2122C11.2991 11.8847 17.3243 1.28589 17.3243 1.28589C17.3243 1.28589 23.3496 11.8845 23.3496 15.2122Z" fill="#FF0C00"/>
<path d="M48.9699 24.9321C48.0975 24.9321 26.0734 24.9321 24.7851 24.9321C21.7112 24.9321 19.2106 27.4328 19.2106 30.5066C19.2106 32.9111 20.7409 34.9649 22.8786 35.7453L19.5603 37.8365L8.88078 31.1063C6.28031 29.4677 2.83149 30.25 1.19259 32.8503C-0.446149 35.4508 0.336169 38.8998 2.93664 40.5385L16.5882 49.1418C18.4038 50.286 20.7156 50.2869 22.5323 49.1418L43.2565 36.0812H48.9699C49.6804 36.0812 50.2563 35.5052 50.2563 34.7947V26.2186C50.2563 25.5081 49.6804 24.9321 48.9699 24.9321ZM47.6835 33.5083H42.885C42.6422 33.5083 42.4045 33.5769 42.199 33.7064L21.1605 46.9652C20.1831 47.5813 18.9381 47.5818 17.9597 46.9652L4.30814 38.3619C2.90799 37.4794 2.48673 35.6223 3.36905 34.2222C4.25153 32.822 6.10862 32.4008 7.50893 33.2831L18.8743 40.4456C19.2933 40.7097 19.8269 40.7097 20.2459 40.4456L27.171 36.0813H29.5022C30.2126 36.0813 30.7886 35.5053 30.7886 34.7949C30.7886 34.0844 30.2126 33.5085 29.5022 33.5085C26.8436 33.5085 27.4156 33.5085 24.7849 33.5085C23.1297 33.5085 21.7833 32.1618 21.7833 30.5068C21.7833 28.8516 23.1297 27.5052 24.7849 27.5052C26.6031 27.5052 46.9255 27.5052 47.6833 27.5052L47.6835 33.5083Z" fill="black"/>
<path d="M17.3244 22.5237C21.3561 22.5237 24.6359 19.2437 24.6359 15.212C24.6359 11.9687 20.0048 3.39628 18.4427 0.650018C17.9503 -0.216176 16.6987 -0.216519 16.2061 0.650018C14.6183 3.44139 10.0127 11.9747 10.0127 15.212C10.0127 19.2437 13.2926 22.5237 17.3244 22.5237ZM17.3244 3.94807C19.4883 7.97647 22.0631 13.3695 22.0631 15.2118C22.0631 17.8248 19.9372 19.9507 17.3244 19.9507C14.7116 19.9507 12.5855 17.8248 12.5855 15.2118C12.5855 13.3707 15.1603 7.97698 17.3244 3.94807Z" fill="black"/>
</svg>
