<svg width="42" height="14" viewBox="0 0 42 14" fill="none" xmlns="http://www.w3.org/2000/svg">
<g clip-path="url(#clip0_500_38)">
<rect width="42" height="14" fill="white"/>
<g clip-path="url(#clip1_500_38)">
<rect width="15" height="14" fill="#FF76CE"/>
<path d="M10.8502 5.24231C10.479 5.24239 10.1213 5.3598 9.84712 5.57152C9.57297 5.78324 9.40219 6.07399 9.36828 6.38674C9.33437 6.69949 9.43977 7.01168 9.66382 7.26208C9.88787 7.51247 10.2144 7.683 10.5793 7.74023V8.79898C10.5789 9.15381 10.4121 9.49401 10.1156 9.74492C9.81908 9.99583 9.41703 10.1369 8.99767 10.1373H7.49184C7.07249 10.1369 6.67044 9.99583 6.37391 9.74492C6.07738 9.49401 5.9106 9.15381 5.91017 8.79898V8.34981C6.64966 8.29269 7.33729 8.00395 7.83828 7.54018C8.33928 7.07642 8.61753 6.47105 8.61851 5.84273V3.42273C8.61967 3.27808 8.56616 3.13692 8.46579 3.01983C8.36542 2.90274 8.22344 2.81587 8.06059 2.77189L6.80934 2.41439C6.7411 2.3956 6.66684 2.40048 6.60285 2.42798C6.53887 2.45548 6.4904 2.50335 6.46809 2.56106C6.45622 2.58932 6.45116 2.61932 6.45321 2.64926C6.45527 2.67921 6.46439 2.7085 6.48004 2.73542C6.49569 2.76233 6.51756 2.78632 6.54434 2.80597C6.57113 2.82562 6.6023 2.84052 6.63601 2.84981L7.89267 3.20731C7.94648 3.22195 7.99335 3.25074 8.02648 3.28948C8.0596 3.32823 8.07725 3.37491 8.07684 3.42273V5.84273C8.07684 6.38974 7.82003 6.91434 7.36291 7.30113C6.90579 7.68793 6.28581 7.90523 5.63934 7.90523C4.99288 7.90523 4.37289 7.68793 3.91577 7.30113C3.45865 6.91434 3.20184 6.38974 3.20184 5.84273V3.42273C3.20144 3.37491 3.21908 3.32823 3.2522 3.28948C3.28533 3.25074 3.33221 3.22195 3.38601 3.20731L4.64267 2.84981C4.67638 2.84052 4.70755 2.82562 4.73434 2.80597C4.76113 2.78632 4.78299 2.76233 4.79864 2.73542C4.8143 2.7085 4.82342 2.67921 4.82547 2.64926C4.82752 2.61932 4.82246 2.58932 4.81059 2.56106C4.78828 2.50335 4.73981 2.45548 4.67583 2.42798C4.61185 2.40048 4.53758 2.3956 4.46934 2.41439L3.21809 2.77189C3.05524 2.81587 2.91326 2.90274 2.81289 3.01983C2.71252 3.13692 2.65901 3.27808 2.66017 3.42273V5.84273C2.66115 6.47105 2.9394 7.07642 3.4404 7.54018C3.9414 8.00395 4.62902 8.29269 5.36851 8.34981V8.79898C5.36937 9.27526 5.59335 9.73183 5.99137 10.0686C6.38938 10.4054 6.92896 10.5949 7.49184 10.5956H8.99767C9.56055 10.5949 10.1001 10.4054 10.4981 10.0686C10.8962 9.73183 11.1201 9.27526 11.121 8.79898V7.74023C11.486 7.683 11.8125 7.51247 12.0365 7.26208C12.2606 7.01168 12.366 6.69949 12.3321 6.38674C12.2982 6.07399 12.1274 5.78324 11.8532 5.57152C11.5791 5.3598 11.2213 5.24239 10.8502 5.24231ZM10.8502 7.30481C10.6627 7.30481 10.4794 7.25777 10.3235 7.16963C10.1677 7.0815 10.0462 6.95623 9.97441 6.80967C9.90267 6.66311 9.8839 6.50184 9.92047 6.34625C9.95705 6.19066 10.0473 6.04774 10.1799 5.93557C10.3125 5.82339 10.4814 5.747 10.6652 5.71606C10.8491 5.68511 11.0397 5.70099 11.2129 5.7617C11.3861 5.82241 11.5342 5.92521 11.6383 6.05711C11.7425 6.18902 11.7981 6.34409 11.7981 6.50273C11.7967 6.71508 11.6963 6.9184 11.5189 7.06856C11.3414 7.21872 11.1011 7.30361 10.8502 7.30481Z" fill="white"/>
</g>
<rect x="0.5" y="0.5" width="14" height="13" stroke="#FF76CE"/>
</g>
<rect x="0.5" y="0.5" width="41" height="13" stroke="#FF76CE"/>
<path d="M17.135 6.145V5.35H18.52V9H17.63V6.145H17.135ZM19.1049 7.125C19.1049 6.55167 19.2149 6.1 19.4349 5.77C19.6582 5.44 20.0165 5.275 20.5099 5.275C21.0032 5.275 21.3599 5.44 21.5799 5.77C21.8032 6.1 21.9149 6.55167 21.9149 7.125C21.9149 7.705 21.8032 8.16 21.5799 8.49C21.3599 8.82 21.0032 8.985 20.5099 8.985C20.0165 8.985 19.6582 8.82 19.4349 8.49C19.2149 8.16 19.1049 7.705 19.1049 7.125ZM21.0749 7.125C21.0749 6.78833 21.0382 6.53 20.9649 6.35C20.8915 6.16667 20.7399 6.075 20.5099 6.075C20.2799 6.075 20.1282 6.16667 20.0549 6.35C19.9815 6.53 19.9449 6.78833 19.9449 7.125C19.9449 7.35167 19.9582 7.54 19.9849 7.69C20.0115 7.83667 20.0649 7.95667 20.1449 8.05C20.2282 8.14 20.3499 8.185 20.5099 8.185C20.6699 8.185 20.7899 8.14 20.8699 8.05C20.9532 7.95667 21.0082 7.83667 21.0349 7.69C21.0615 7.54 21.0749 7.35167 21.0749 7.125ZM26.0362 5.49V6.175H25.1062V9H24.2512V6.175H23.3212V5.49H26.0362ZM26.2953 7.6C26.2953 7.31333 26.3486 7.06167 26.4553 6.845C26.5653 6.62833 26.7136 6.46167 26.9003 6.345C27.0869 6.22833 27.2953 6.17 27.5253 6.17C27.7219 6.17 27.8936 6.21 28.0403 6.29C28.1903 6.37 28.3053 6.475 28.3853 6.605V6.21H29.2403V9H28.3853V8.605C28.3019 8.735 28.1853 8.84 28.0353 8.92C27.8886 9 27.7169 9.04 27.5203 9.04C27.2936 9.04 27.0869 8.98167 26.9003 8.865C26.7136 8.745 26.5653 8.57667 26.4553 8.36C26.3486 8.14 26.2953 7.88667 26.2953 7.6ZM28.3853 7.605C28.3853 7.39167 28.3253 7.22333 28.2053 7.1C28.0886 6.97667 27.9453 6.915 27.7753 6.915C27.6053 6.915 27.4603 6.97667 27.3403 7.1C27.2236 7.22 27.1653 7.38667 27.1653 7.6C27.1653 7.81333 27.2236 7.98333 27.3403 8.11C27.4603 8.23333 27.6053 8.295 27.7753 8.295C27.9453 8.295 28.0886 8.23333 28.2053 8.11C28.3253 7.98667 28.3853 7.81833 28.3853 7.605ZM31.5738 6.18C31.8938 6.18 32.1505 6.28667 32.3438 6.5C32.5372 6.71 32.6338 7 32.6338 7.37V9H31.7838V7.485C31.7838 7.29833 31.7355 7.15333 31.6388 7.05C31.5422 6.94667 31.4122 6.895 31.2488 6.895C31.0855 6.895 30.9555 6.94667 30.8588 7.05C30.7622 7.15333 30.7138 7.29833 30.7138 7.485V9H29.8588V5.3H30.7138V6.585C30.8005 6.46167 30.9188 6.36333 31.0688 6.29C31.2188 6.21667 31.3872 6.18 31.5738 6.18ZM35.983 6.21V9H35.128V8.62C35.0413 8.74333 34.923 8.84333 34.773 8.92C34.6263 8.99333 34.463 9.03 34.283 9.03C34.0696 9.03 33.8813 8.98333 33.718 8.89C33.5546 8.79333 33.428 8.655 33.338 8.475C33.248 8.295 33.203 8.08333 33.203 7.84V6.21H34.053V7.725C34.053 7.91167 34.1013 8.05667 34.198 8.16C34.2946 8.26333 34.4246 8.315 34.588 8.315C34.7546 8.315 34.8863 8.26333 34.983 8.16C35.0796 8.05667 35.128 7.91167 35.128 7.725V6.21H35.983ZM38.2971 6.18C38.6238 6.18 38.8838 6.28667 39.0771 6.5C39.2738 6.71 39.3721 7 39.3721 7.37V9H38.5221V7.485C38.5221 7.29833 38.4738 7.15333 38.3771 7.05C38.2804 6.94667 38.1504 6.895 37.9871 6.895C37.8238 6.895 37.6938 6.94667 37.5971 7.05C37.5004 7.15333 37.4521 7.29833 37.4521 7.485V9H36.5971V6.21H37.4521V6.58C37.5388 6.45667 37.6554 6.36 37.8021 6.29C37.9488 6.21667 38.1138 6.18 38.2971 6.18Z" fill="#FF76CE"/>
<defs>
<clipPath id="clip0_500_38">
<rect width="42" height="14" fill="white"/>
</clipPath>
<clipPath id="clip1_500_38">
<rect width="15" height="14" fill="white"/>
</clipPath>
</defs>
</svg>
