<svg width="19" height="19" viewBox="0 0 19 19" fill="none" xmlns="http://www.w3.org/2000/svg">
<path fill-rule="evenodd" clip-rule="evenodd" d="M14.8116 8.85784C14.7939 7.9519 14.7828 7.04584 14.7783 6.13974C14.2951 5.89779 13.8348 5.61268 13.4029 5.28789C12.5886 4.6688 11.6111 3.66759 11.6111 2.34812C11.6111 1.17221 12.4999 0 13.8214 0C14.4347 0 14.9308 0.244893 15.3056 0.610649C15.6798 0.244893 16.1764 0 16.7902 0C18.1112 0 19 1.17327 19 2.34759C19 3.62642 18.0178 4.62921 17.2114 5.252C16.7783 5.58431 16.3175 5.87867 15.8339 6.13182C15.837 7.05228 15.8518 7.93105 15.8655 8.76284C15.8972 10.5863 15.9236 12.185 15.8133 13.505C15.6454 15.5043 15.1499 17.1087 13.6679 17.9769C12.2107 18.8304 10.0573 19.1513 8.27397 18.9343C7.37886 18.8256 6.52439 18.5754 5.87786 18.1437C5.40761 17.8297 5.03447 17.4069 4.85925 16.877C3.76306 16.8269 2.67267 16.6269 1.81028 16.269C0.87875 15.8827 0 15.2134 0 14.1658V3.75889H0.00158322L0 3.6945C0 2.23729 2.36286 1.05557 5.27778 1.05557C8.19269 1.05557 10.5556 2.23729 10.5556 3.6945C10.5556 3.71597 10.555 3.73743 10.554 3.75889H10.5556V6.8987C11.4348 7.02584 12.2388 7.46552 12.8203 8.13719C13.4018 8.80886 13.7218 9.66755 13.7217 10.556C13.7216 11.4444 13.4015 12.303 12.8199 12.9746C12.2384 13.6462 11.4343 14.0857 10.555 14.2128C10.5308 15.2762 9.6805 15.9492 8.74264 16.3313C7.96681 16.6469 7.01153 16.8211 6.03514 16.8728C6.14034 17.0142 6.28355 17.1453 6.46475 17.266C6.92392 17.5732 7.59947 17.789 8.4017 17.8867C10.0119 18.0825 11.9204 17.7769 13.1348 17.066C14.1434 16.4749 14.5994 15.348 14.7614 13.4169C14.8675 12.1491 14.8422 10.6396 14.8116 8.85784ZM9.49789 14.2128C9.47467 14.6234 9.14269 15.0282 8.34417 15.3533C7.53931 15.6811 6.42728 15.8457 5.28306 15.8331C5.1211 15.8312 4.95921 15.8257 4.7975 15.8167V6.32288C4.95583 6.32992 5.11575 6.33344 5.27725 6.33344C7.00361 6.33344 8.53681 5.91912 9.49947 5.27786V6.89817C8.61981 7.02467 7.81521 7.46398 7.23317 8.13558C6.65112 8.80717 6.33063 9.66605 6.33044 10.5548C6.33025 11.4435 6.65037 12.3025 7.23212 12.9744C7.81388 13.6462 8.61828 14.0859 9.49789 14.2128ZM9.5 3.6945C9.5 3.80798 9.38072 4.19485 8.53786 4.61655C7.75781 5.00605 6.60672 5.27786 5.27778 5.27786C3.94883 5.27786 2.79722 5.00605 2.01769 4.61655C1.17483 4.19485 1.05556 3.80798 1.05556 3.6945C1.05556 3.58103 1.17483 3.19416 2.01769 2.77246C2.79775 2.38296 3.94883 2.11115 5.27778 2.11115C6.60672 2.11115 7.75833 2.38296 8.53786 2.77246C9.38072 3.19416 9.5 3.58103 9.5 3.6945ZM9.23611 10.8196L10.0278 8.18069L10.8194 10.8196L10.0278 11.8752L9.23611 10.8196Z" fill="black"/>
</svg>
