<svg width="75" height="111" viewBox="0 0 75 111" fill="none" xmlns="http://www.w3.org/2000/svg">
<path d="M53.7043 6.13452C49.966 6.13452 46.9353 9.16517 46.9353 12.9035C46.9353 16.6418 49.966 19.6725 53.7043 19.6725C57.4426 19.6725 60.4733 16.6418 60.4733 12.9035C60.4915 9.16489 57.4609 6.13452 53.7043 6.13452Z" fill="#FFC10D"/>
<path d="M53.7048 0.0185547C46.5911 0.0185547 40.8201 5.80755 40.8201 12.9033C40.8201 20.017 46.6091 25.8063 53.7231 25.8063C60.837 25.8063 66.626 20.0173 66.626 12.9033C66.6258 5.80755 60.8185 0.0185547 53.7048 0.0185547ZM53.7048 19.6902C49.9665 19.6902 46.9358 16.6596 46.9358 12.9213C46.9358 9.18292 49.9665 6.15227 53.7048 6.15227C57.4431 6.15227 60.4738 9.18292 60.4738 12.9213C60.492 16.6596 57.4614 19.6902 53.7048 19.6902Z" fill="black"/>
<path d="M68.586 39.1263C68.586 36.8216 66.7167 34.9523 64.412 34.9523H62.8694L56.5179 50.3778C55.429 52.9728 51.8902 52.8097 50.8558 50.3778L44.5042 34.9343H42.9799C40.6752 34.9343 38.8059 36.8036 38.8059 39.0901V72.5358H68.5678V39.1263H68.586Z" fill="#56ACE0"/>
<path d="M43.5969 104.094H50.6381V89.8668C50.6381 88.1791 51.9991 86.7999 53.705 86.7999C55.3927 86.7999 56.7719 88.1609 56.7719 89.8668V104.094H63.8132V78.688H43.5786V104.094H43.5969Z" fill="#FFC10D"/>
<path d="M64.4297 28.8184H60.8545C59.6204 28.8184 58.4953 29.5805 58.0417 30.7056L53.7408 41.1585L49.4216 30.7056C48.9497 29.5623 47.8428 28.8184 46.6088 28.8184H43.0156C37.3355 28.8184 32.7258 33.446 32.7258 39.1081V75.621C32.7258 77.3087 34.0868 78.6879 35.7927 78.6879H37.4986V107.143C37.4986 108.831 38.8595 110.21 40.5655 110.21H66.9158C68.6035 110.21 69.9826 108.849 69.9826 107.143V78.6876H71.6703C73.358 78.6876 74.7372 77.3267 74.7372 75.6207V39.1261C74.7375 33.4457 70.1098 28.8184 64.4297 28.8184ZM63.8489 104.094H56.8076V89.8664C56.8076 88.1787 55.4467 86.7995 53.7408 86.7995C52.0531 86.7995 50.6739 88.1605 50.6739 89.8664V104.094H43.6326V78.6876H63.8671V104.094H63.8489ZM38.8236 72.5718V39.1261C38.8236 36.8214 40.6929 34.9521 42.9976 34.9521H44.5402L50.8917 50.3956C51.9262 52.8274 55.4649 52.9905 56.5539 50.3956L62.9054 34.97H64.448C66.7527 34.97 68.622 36.8394 68.622 39.1441V72.5898H38.8236V72.5718Z" fill="black"/>
<path d="M19.7869 6.13424C21.4746 6.13424 22.8538 4.77332 22.8538 3.06738C22.8538 1.36145 21.4567 0.000244141 19.7869 0.000244141H3.47238C1.78469 0.000244141 0.405518 1.36117 0.405518 3.0671V107.143C0.405518 108.831 1.76645 110.21 3.47238 110.21H19.7869C21.4746 110.21 22.8538 108.849 22.8538 107.143C22.8538 105.455 21.4929 104.076 19.7869 104.076H6.55748V95.4926H19.7869C21.4746 95.4926 22.8538 94.1316 22.8538 92.4257C22.8538 90.7198 21.4929 89.3588 19.7869 89.3588H6.55748V80.3576H12.8728C14.5605 80.3576 15.9397 78.9964 15.9397 77.2907C15.9397 75.5851 14.5788 74.2238 12.8728 74.2238H6.55748V65.6942H19.7869C21.4746 65.6942 22.8538 64.3333 22.8538 62.6273C22.8538 60.9396 21.4929 59.5605 19.7869 59.5605H6.55748V50.5592H12.8728C14.5605 50.5592 15.9397 49.1983 15.9397 47.4923C15.9397 45.8047 14.5788 44.4255 12.8728 44.4255H6.55748V35.9144H19.7869C21.4746 35.9144 22.8538 34.5534 22.8538 32.8475C22.8538 31.1598 21.4929 29.7806 19.7869 29.7806H6.55748V20.7611H12.8728C14.5605 20.7611 15.9397 19.4002 15.9397 17.6943C15.9397 15.9883 14.5788 14.6274 12.8728 14.6274H6.55748V6.00708H19.7869V6.13424Z" fill="black"/>
</svg>
