<svg width="56" height="56" viewBox="0 0 56 56" fill="none" xmlns="http://www.w3.org/2000/svg">
<g clip-path="url(#clip0_158_304)">
<path d="M10.78 42.28C13.16 40.46 15.82 39.0255 18.76 37.9764C21.7 36.9273 24.78 36.4019 28 36.4C31.22 36.3981 34.3 36.9236 37.24 37.9764C40.18 39.0292 42.84 40.4637 45.22 42.28C46.8533 40.3667 48.1254 38.1967 49.0364 35.77C49.9473 33.3433 50.4018 30.7533 50.4 28C50.4 21.7933 48.2188 16.5079 43.8564 12.1436C39.494 7.77933 34.2085 5.59813 28 5.6C21.7915 5.60187 16.506 7.784 12.1436 12.1464C7.7812 16.5088 5.6 21.7933 5.6 28C5.6 30.7533 6.05547 33.3433 6.9664 35.77C7.87733 38.1967 9.14853 40.3667 10.78 42.28ZM28 30.8C25.2467 30.8 22.9245 29.8555 21.0336 27.9664C19.1427 26.0773 18.1981 23.7552 18.2 21C18.2019 18.2448 19.1473 15.9227 21.0364 14.0336C22.9255 12.1445 25.2467 11.2 28 11.2C30.7533 11.2 33.0754 12.1455 34.9664 14.0364C36.8573 15.9273 37.8018 18.2485 37.8 21C37.7981 23.7515 36.8536 26.0736 34.9664 27.9664C33.0792 29.8592 30.757 30.8037 28 30.8ZM28 56C24.1267 56 20.4867 55.2645 17.08 53.7936C13.6733 52.3227 10.71 50.3281 8.19 47.81C5.67 45.2919 3.67547 42.3285 2.2064 38.92C0.737337 35.5115 0.00187021 31.8715 3.5443e-06 28C-0.00186312 24.1285 0.733603 20.4885 2.2064 17.08C3.6792 13.6715 5.67373 10.7081 8.19 8.19C10.7063 5.67187 13.6696 3.67733 17.08 2.2064C20.4904 0.735467 24.1304 0 28 0C31.8696 0 35.5096 0.735467 38.92 2.2064C42.3304 3.67733 45.2937 5.67187 47.81 8.19C50.3262 10.7081 52.3217 13.6715 53.7964 17.08C55.271 20.4885 56.0056 24.1285 56 28C55.9944 31.8715 55.2589 35.5115 53.7936 38.92C52.3282 42.3285 50.3337 45.2919 47.81 47.81C45.2862 50.3281 42.3229 52.3236 38.92 53.7964C35.517 55.2692 31.877 56.0037 28 56Z" fill="black"/>
</g>
<defs>
<clipPath id="clip0_158_304">
<rect width="56" height="56" fill="white"/>
</clipPath>
</defs>
</svg>
