<svg width="51" height="51" viewBox="0 0 51 51" fill="none" xmlns="http://www.w3.org/2000/svg">
<path d="M48.97 26.4009C48.0844 26.4009 26.0624 26.4009 24.7852 26.4009C22.4168 26.4009 20.4971 28.3207 20.4971 30.689C20.4971 33.0572 22.4168 34.9771 24.7852 34.9771H26.7998L19.5604 39.5394L8.19512 32.3769C6.19173 31.1147 3.54392 31.7148 2.28117 33.7184C1.01858 35.722 1.61926 38.3698 3.62265 39.6324L17.2742 48.2356C18.6711 49.1159 20.4496 49.1161 21.8467 48.2356L42.885 34.9769H48.97V26.4009Z" fill="#FFD900"/>
<path d="M23.3496 15.3946C23.3496 18.7221 20.6521 21.4199 17.3243 21.4199C13.9968 21.4199 11.2991 18.7223 11.2991 15.3946C11.2991 12.067 17.3243 1.46826 17.3243 1.46826C17.3243 1.46826 23.3496 12.0669 23.3496 15.3946Z" fill="#FFD900"/>
<path d="M48.9699 25.1145C48.0975 25.1145 26.0734 25.1145 24.7851 25.1145C21.7112 25.1145 19.2106 27.6151 19.2106 30.689C19.2106 33.0934 20.7409 35.1473 22.8786 35.9277L19.5603 38.0189L8.88078 31.2887C6.28031 29.6501 2.83149 30.4324 1.19259 33.0327C-0.446149 35.6332 0.336169 39.0822 2.93664 40.7209L16.5882 49.3242C18.4038 50.4684 20.7156 50.4693 22.5323 49.3242L43.2565 36.2635H48.9699C49.6804 36.2635 50.2563 35.6875 50.2563 34.9771V26.4009C50.2563 25.6905 49.6804 25.1145 48.9699 25.1145ZM47.6835 33.6907H42.885C42.6422 33.6907 42.4045 33.7593 42.199 33.8888L21.1605 47.1475C20.1831 47.7637 18.9381 47.7642 17.9597 47.1475L4.30814 38.5443C2.90799 37.6618 2.48673 35.8047 3.36905 34.4046C4.25153 33.0044 6.10862 32.5831 7.50893 33.4655L18.8743 40.6279C19.2933 40.8921 19.8269 40.8921 20.2459 40.6279L27.171 36.2637H29.5022C30.2126 36.2637 30.7886 35.6877 30.7886 34.9773C30.7886 34.2668 30.2126 33.6908 29.5022 33.6908C26.8436 33.6908 27.4156 33.6908 24.7849 33.6908C23.1297 33.6908 21.7833 32.3442 21.7833 30.6892C21.7833 29.034 23.1297 27.6875 24.7849 27.6875C26.6031 27.6875 46.9255 27.6875 47.6833 27.6875L47.6835 33.6907Z" fill="black"/>
<path d="M17.3244 22.7061C21.3561 22.7061 24.6359 19.426 24.6359 15.3944C24.6359 12.151 20.0048 3.57865 18.4427 0.832391C17.9503 -0.0338025 16.6987 -0.0341455 16.2061 0.832391C14.6183 3.62376 10.0127 12.1571 10.0127 15.3944C10.0127 19.426 13.2926 22.7061 17.3244 22.7061ZM17.3244 4.13044C19.4883 8.15884 22.0631 13.5519 22.0631 15.3942C22.0631 18.0072 19.9372 20.1331 17.3244 20.1331C14.7116 20.1331 12.5855 18.0072 12.5855 15.3942C12.5855 13.5531 15.1603 8.15936 17.3244 4.13044Z" fill="black"/>
</svg>
